<svg xmlns="http://www.w3.org/2000/svg" xmlns:xlink="http://www.w3.org/1999/xlink" viewBox="0 0 172 62"><defs><style>.cls-1{fill:none;}.cls-2{fill:#e57f7e;}.cls-2,.cls-3,.cls-4,.cls-5,.cls-6,.cls-7,.cls-8,.cls-9{fill-rule:evenodd;}.cls-3{fill:#afd480;}.cls-4{fill:#bfbc47;}.cls-5{fill:#f1cf80;}.cls-6{fill:#ea977d;}.cls-7{fill:#d7513f;}.cls-33,.cls-8{fill:#009fe8;}.cls-9{fill:#ed86b3;}.cls-10{fill:#e50012;}.cls-11{clip-path:url(#clip-path);}.cls-12{fill:#f8c170;}.cls-13{fill:#aad4f1;}.cls-14{fill:#eaeb80;}.cls-15{fill:#9ec57f;}.cls-16{fill:#9fd1a7;}.cls-17{fill:#a6a353;}.cls-18{fill:#90c65d;}.cls-19{fill:#949d39;}.cls-20{fill:#51ae61;}.cls-21{fill:#638b41;}.cls-22{fill:#f09280;}.cls-23{fill:#ec723b;}.cls-24{fill:#b07e7f;}.cls-25{fill:#b06443;}.cls-26{fill:#a1784a;}.cls-27{fill:#a06132;}.cls-28{fill:#a46437;}.cls-29{fill:#785b3e;}.cls-30{fill:#96622f;}.cls-31{fill:#6a6c42;}.cls-32{fill:#6d5a36;}.cls-34{fill:#eb7aab;}.cls-35{fill:#8564a8;}.cls-36{fill:#f29600;}.cls-37{fill:#e94e07;}.cls-38{fill:#0054a6;}.cls-39{fill:#513590;}.cls-40{fill:#e7374a;}.cls-41{fill:#e62510;}.cls-42{fill:#15ad67;}.cls-43{fill:#5f3c39;}.cls-44{fill:#265a51;}.cls-45{fill:#8a482c;}</style><clipPath id="clip-path" transform="translate(0 0)"><path class="cls-1" d="M169.38,12.56a1.51,1.51,0,0,0,0-2.14,1.49,1.49,0,0,0-.86-.44l-7.1-1.05a2.89,2.89,0,0,1-2.28-1.66L156,.84a1.53,1.53,0,0,0-2-.68,1.44,1.44,0,0,0-.49.39h0l-.08.12,0,0a.64.64,0,0,0-.08.14l-3.19,6.43a2.93,2.93,0,0,1-2.28,1.65l-3.87.57-3.23.48a1.51,1.51,0,0,0-1.28,1.72,1.55,1.55,0,0,0,.44.87l5.13,5,.13.14a3.19,3.19,0,0,1,.65,1.09h0a3.1,3.1,0,0,1,.09,1.45l-.48,2.84h0l-.29,1.67-.5,2.44A1.49,1.49,0,0,0,145,28.6a1.71,1.71,0,0,0,.25.22,1.48,1.48,0,0,0,1.6.12c.83-.44,1.86-.9,2.89-1.37h0a25.94,25.94,0,0,0,2.86-1.5l0,0,.57-.27.17-.08a3,3,0,0,1,1.25-.24h0a3,3,0,0,1,1.4.41l2.5,1.42h0l3,1.5a3.25,3.25,0,0,0,2.13.22,1.28,1.28,0,0,0,.47-.26,1.68,1.68,0,0,0,.45-1,3.29,3.29,0,0,0-.07-.83l-1.13-6.68a2.93,2.93,0,0,1,.87-2.69l5.13-5"/></clipPath></defs><g id="레이어_2" data-name="레이어 2"><g id="레이어_1-2" data-name="레이어 1"><g id="그룹_4333" data-name="그룹 4333"><path id="패스_7839" data-name="패스 7839" class="cls-2" d="M163.93,4.28A1.24,1.24,0,1,0,162.7,3h0a1.24,1.24,0,0,0,1.23,1.24" transform="translate(0 0)"/><path id="패스_7840" data-name="패스 7840" class="cls-2" d="M164.76,4.9a.56.56,0,1,1-.56.56h0A.56.56,0,0,1,164.76,4.9Z" transform="translate(0 0)"/><path id="패스_7841" data-name="패스 7841" class="cls-2" d="M165,6.63a.39.39,0,1,1-.39.38.38.38,0,0,1,.39-.38Z" transform="translate(0 0)"/><path id="패스_7842" data-name="패스 7842" class="cls-3" d="M163.93,4.28A1.24,1.24,0,1,0,162.7,3h0a1.24,1.24,0,0,0,1.23,1.24" transform="translate(0 0)"/><path id="패스_7843" data-name="패스 7843" class="cls-4" d="M164.76,4.9a.56.56,0,1,1-.56.56h0a.56.56,0,0,1,.56-.56" transform="translate(0 0)"/><path id="패스_7844" data-name="패스 7844" class="cls-5" d="M165,6.63a.39.39,0,1,1-.39.38.38.38,0,0,1,.39-.38h0" transform="translate(0 0)"/><path id="패스_7845" data-name="패스 7845" class="cls-2" d="M170.65,16.4a1.35,1.35,0,1,1-1.35,1.35h0a1.34,1.34,0,0,1,1.35-1.35Z" transform="translate(0 0)"/><path id="패스_7846" data-name="패스 7846" class="cls-2" d="M167.86,18a.65.65,0,1,0,.65.65h0A.65.65,0,0,0,167.86,18Z" transform="translate(0 0)"/><path id="패스_7847" data-name="패스 7847" class="cls-6" d="M170.65,16.4a1.35,1.35,0,1,1-1.35,1.35h0a1.34,1.34,0,0,1,1.35-1.35h0" transform="translate(0 0)"/><path id="패스_7848" data-name="패스 7848" class="cls-7" d="M167.86,18a.65.65,0,1,0,.65.65h0a.65.65,0,0,0-.65-.65" transform="translate(0 0)"/><path id="패스_7849" data-name="패스 7849" class="cls-8" d="M131,24.93a.25.25,0,0,1,0,.36.22.22,0,0,1-.13.08l-.85.23,0,0-.36.89a.25.25,0,0,1-.33.14.23.23,0,0,1-.12-.1l-.48-.73,0,0-1-.06a.27.27,0,0,1-.22-.16.25.25,0,0,1,0-.26l.55-.68v0l-.24-.93a.28.28,0,0,1,.08-.26.25.25,0,0,1,.26,0l.82.31h0l.82-.5a.26.26,0,0,1,.35.07.27.27,0,0,1,0,.15l0,.88v0Z" transform="translate(0 0)"/><path id="패스_7850" data-name="패스 7850" class="cls-9" d="M133.41,19.9a.42.42,0,0,1,.44-.17l1.57.27.05,0,1.28-1.18a.44.44,0,0,1,.46-.1.42.42,0,0,1,.3.36l.23,1.58,0,.05.44.24h0l1.08.6a.45.45,0,0,1,.18.62.41.41,0,0,1-.2.19l-1.43.7,0,0-.34,1.72a.45.45,0,0,1-.53.36.51.51,0,0,1-.24-.13l-1.11-1.15-.05,0-1.73.22a.46.46,0,0,1-.52-.41.52.52,0,0,1,.05-.27l.75-1.4v-.06l-.74-1.58A.43.43,0,0,1,133.41,19.9Z" transform="translate(0 0)"/><path id="패스_7851" data-name="패스 7851" class="cls-10" d="M125.18,29.4a.13.13,0,0,0-.12.08l-.14.26-.11.2h0l-.48.07a.14.14,0,0,0-.11.16.1.1,0,0,0,0,.07l.36.38v0l-.08.47a.13.13,0,0,0,.12.15h.08l.47-.22h0l.42.21a.12.12,0,0,0,.14,0,.11.11,0,0,0,.06-.13l-.07-.51v0l0,0,.17-.17.13-.14a.12.12,0,0,0,0-.13A.16.16,0,0,0,126,30l-.51-.1h0l-.22-.42a.13.13,0,0,0-.12-.08h0" transform="translate(0 0)"/><g id="그룹_4332" data-name="그룹 4332"><g class="cls-11"><g id="그룹_4331" data-name="그룹 4331"><path id="패스_7852" data-name="패스 7852" class="cls-12" d="M151.08,22a9.81,9.81,0,0,1-5.62.49l-.1.59h0l-.29,1.67-.5,2.44A1.49,1.49,0,0,0,145,28.6a1.71,1.71,0,0,0,.25.22,1.51,1.51,0,0,0,.89.3,1.47,1.47,0,0,0,.71-.18c.83-.43,1.87-.9,2.89-1.37h0c.78-.36,1.56-.74,2.24-1.12a9.69,9.69,0,0,1-.89-4.43" transform="translate(0 0)"/><path id="패스_7853" data-name="패스 7853" class="cls-13" d="M154.61,0a1.47,1.47,0,0,0-1.17.55h0l-.08.12,0,0a.64.64,0,0,0-.08.14L151.6,4.18a9.74,9.74,0,0,1,3.85,3.26A10,10,0,0,1,158,4.93L156,.84A1.48,1.48,0,0,0,154.61,0" transform="translate(0 0)"/><path id="패스_7854" data-name="패스 7854" class="cls-14" d="M165,9.46a9.77,9.77,0,0,1-1.05,3.7A9.54,9.54,0,0,1,167,14.88l2.37-2.32a1.52,1.52,0,0,0,0-2.15,1.58,1.58,0,0,0-.86-.44L165,9.45" transform="translate(0 0)"/><path id="패스_7855" data-name="패스 7855" class="cls-15" d="M158,4.93a10.1,10.1,0,0,0-2.54,2.51,9.71,9.71,0,0,1,1.73,5.9,9.79,9.79,0,0,1,6.77-.17A9.87,9.87,0,0,0,165,9.46l-3.56-.52a2.91,2.91,0,0,1-2.28-1.66L158,4.93" transform="translate(0 0)"/><path id="패스_7856" data-name="패스 7856" class="cls-16" d="M159.58,21.91a9.72,9.72,0,0,1-1.09,5.37h0l3,1.5a4,4,0,0,0,1.5.32,1.7,1.7,0,0,0,.63-.1,1.28,1.28,0,0,0,.47-.26,1.68,1.68,0,0,0,.45-1,3.37,3.37,0,0,0-.07-.84l-.72-4.24h-.33a9.52,9.52,0,0,1-3.87-.8" transform="translate(0 0)"/><path id="패스_7857" data-name="패스 7857" class="cls-17" d="M155.45,18.52A9.72,9.72,0,0,1,151.08,22a9.63,9.63,0,0,0,.88,4.43c.22-.12.43-.25.62-.37l0,0,.57-.27.17-.08a2.89,2.89,0,0,1,1.15-.24h.09a3,3,0,0,1,1.4.41l2.48,1.41a9.73,9.73,0,0,0,1.1-5.37,9.81,9.81,0,0,1-3-2.05,9.59,9.59,0,0,1-1.12-1.34" transform="translate(0 0)"/><path id="패스_7858" data-name="패스 7858" class="cls-18" d="M164,13.16a9.78,9.78,0,0,1-5.59,4.78,9.63,9.63,0,0,1,1.22,4,9.55,9.55,0,0,0,3.87.8h.34l-.42-2.44a3,3,0,0,1,.88-2.69l2.76-2.7A9.54,9.54,0,0,0,164,13.16" transform="translate(0 0)"/><path id="패스_7859" data-name="패스 7859" class="cls-19" d="M158.37,17.94a9.53,9.53,0,0,1-2.85.49l-.06.1a9.59,9.59,0,0,0,1.12,1.34,9.69,9.69,0,0,0,3,2.05,9.63,9.63,0,0,0-1.22-4" transform="translate(0 0)"/><path id="패스_7860" data-name="패스 7860" class="cls-20" d="M160.8,12.64a9.76,9.76,0,0,0-3.62.7,9.62,9.62,0,0,1-.42,2.49h0a10.29,10.29,0,0,1,1.6,2.11A9.79,9.79,0,0,0,164,13.16a9.86,9.86,0,0,0-3.15-.52" transform="translate(0 0)"/><path id="패스_7861" data-name="패스 7861" class="cls-21" d="M156.76,15.83a9.71,9.71,0,0,1-1.24,2.6,9.85,9.85,0,0,0,2.85-.49,9.7,9.7,0,0,0-1.6-2.11h0" transform="translate(0 0)"/><path id="패스_7862" data-name="패스 7862" class="cls-22" d="M145.58,9.25l-1.67.25-3.23.48a1.51,1.51,0,0,0-1.28,1.72,1.49,1.49,0,0,0,.44.86l3.25,3.19a9.7,9.7,0,0,1,3.73-2.27,9.83,9.83,0,0,1-1.24-4.23" transform="translate(0 0)"/><path id="패스_7863" data-name="패스 7863" class="cls-23" d="M146.82,13.48a9.7,9.7,0,0,0-3.73,2.27L145,17.58l.13.14a3.1,3.1,0,0,1,.65,1.09h0a3.1,3.1,0,0,1,.09,1.45l-.38,2.25a9.82,9.82,0,0,0,5.62-.49,9.75,9.75,0,0,1,1.07-4.1,9.77,9.77,0,0,1-5.33-4.44" transform="translate(0 0)"/><path id="패스_7864" data-name="패스 7864" class="cls-24" d="M151.6,4.18l-1.54,3.1a2.91,2.91,0,0,1-2.28,1.65l-2.2.33a9.77,9.77,0,0,0,1.23,4.22,9.77,9.77,0,0,1,6.94.3,9.79,9.79,0,0,1,1.7-6.34,9.76,9.76,0,0,0-3.85-3.27" transform="translate(0 0)"/><path id="패스_7865" data-name="패스 7865" class="cls-25" d="M149.89,13a9.68,9.68,0,0,0-3.07.5,9.71,9.71,0,0,0,5.33,4.43,9.78,9.78,0,0,1,1.77-2.42l.1-.1a9.65,9.65,0,0,1-.26-1.61,9.72,9.72,0,0,0-3.87-.8" transform="translate(0 0)"/><path id="패스_7866" data-name="패스 7866" class="cls-26" d="M155.45,7.44a9.8,9.8,0,0,0-1.7,6.34,9.53,9.53,0,0,1,1.34.71,9.59,9.59,0,0,1,2.08-1.15,9.7,9.7,0,0,0-1.72-5.9" transform="translate(0 0)"/><path id="패스_7867" data-name="패스 7867" class="cls-27" d="M153.76,13.78a8.73,8.73,0,0,0,.27,1.61,11.44,11.44,0,0,1,1.06-.9,9.42,9.42,0,0,0-1.33-.71" transform="translate(0 0)"/><path id="패스_7868" data-name="패스 7868" class="cls-28" d="M152.15,17.91a9.83,9.83,0,0,0-1.07,4.1,9.66,9.66,0,0,0,4.37-3.49l-.06-.09h-.09a9.68,9.68,0,0,1-3.15-.52" transform="translate(0 0)"/><path id="패스_7869" data-name="패스 7869" class="cls-29" d="M154,15.39l-.1.1a9.82,9.82,0,0,0-1.78,2.42,9.42,9.42,0,0,0,3.15.52h.09a9.36,9.36,0,0,1-1.36-3" transform="translate(0 0)"/><path id="패스_7870" data-name="패스 7870" class="cls-30" d="M155.52,18.43h-.13l.06.09.07-.09" transform="translate(0 0)"/><path id="패스_7871" data-name="패스 7871" class="cls-31" d="M157.18,13.34a9.9,9.9,0,0,0-2.09,1.15,9.44,9.44,0,0,1,1.67,1.34,9.62,9.62,0,0,0,.42-2.49" transform="translate(0 0)"/><path id="패스_7872" data-name="패스 7872" class="cls-32" d="M155.09,14.49a11.44,11.44,0,0,0-1.06.9,9.36,9.36,0,0,0,1.36,3h.13a9.57,9.57,0,0,0,1.24-2.6,9.39,9.39,0,0,0-1.67-1.33" transform="translate(0 0)"/></g></g></g><path id="패스_7873" data-name="패스 7873" class="cls-33" d="M159.42,58.78A4.81,4.81,0,0,1,154.63,54h0a11,11,0,1,0-2.13,4,8,8,0,0,0,6.92,4,1.62,1.62,0,0,0,0-3.23h0m-15.38,0a7.8,7.8,0,1,1,7.8-7.8h0a7.82,7.82,0,0,1-7.8,7.8" transform="translate(0 0)"/><path id="패스_7874" data-name="패스 7874" class="cls-34" d="M109.82,62a1.61,1.61,0,0,1-1.61-1.62V28.74a1.61,1.61,0,0,1,3.22,0h0V60.38A1.61,1.61,0,0,1,109.82,62" transform="translate(0 0)"/><path id="패스_7875" data-name="패스 7875" class="cls-35" d="M116,62a1.61,1.61,0,0,1-1.61-1.61V28.74a1.62,1.62,0,0,1,3.23,0h0V60.38A1.61,1.61,0,0,1,116,62" transform="translate(0 0)"/><path id="패스_7876" data-name="패스 7876" class="cls-36" d="M94.49,58.75a7.8,7.8,0,1,1,7.8-7.8h0a7.81,7.81,0,0,1-7.8,7.8m0-18.82a11,11,0,0,0-8.85,4.44,10.59,10.59,0,0,1,1.44,2.82,1.56,1.56,0,1,1-2.84,1.27,1.14,1.14,0,0,1-.09-.26h0c-.06-.18-.12-.35-.19-.52A11,11,0,0,0,103,58a8,8,0,0,0,6.92,4,1.61,1.61,0,0,0,1.61-1.61h0a1.61,1.61,0,1,1-3.22,0V58.5A4.83,4.83,0,0,1,105.08,54h0a11,11,0,0,0-7.54-13.64,11.23,11.23,0,0,0-3.05-.43" transform="translate(0 0)"/><path id="패스_7877" data-name="패스 7877" class="cls-37" d="M108.21,58.5v1.88a1.61,1.61,0,1,0,1.62-1.6h0a4.91,4.91,0,0,1-1.61-.28" transform="translate(0 0)"/><path id="패스_7878" data-name="패스 7878" class="cls-35" d="M125.39,58.77A7.81,7.81,0,1,1,133.2,51h0a7.81,7.81,0,0,1-7.81,7.81m0-18.84a11,11,0,0,0-7.81,3.25V58.75a11,11,0,0,0,15.59,0,10.84,10.84,0,0,0,1.65-2.1,11,11,0,0,1,0-11.47,11,11,0,0,0-9.42-5.29" transform="translate(0 0)"/><path id="패스_7879" data-name="패스 7879" class="cls-38" d="M134.79,45.22a11,11,0,0,0,0,11.47,11,11,0,0,0,0-11.47" transform="translate(0 0)"/><path id="패스_7880" data-name="패스 7880" class="cls-39" d="M117.65,43.18a11,11,0,0,0,0,15.57V43.18" transform="translate(0 0)"/><path id="패스_7881" data-name="패스 7881" class="cls-40" d="M77.12,39.93A10.54,10.54,0,0,0,70,42.69V41.54a1.61,1.61,0,0,0-3.22,0h0v17a4.81,4.81,0,0,0,1.6.28A1.61,1.61,0,0,1,70,60.39a1.65,1.65,0,0,1-.43,1.1A1.64,1.64,0,0,0,70,60.38V48.19a7.52,7.52,0,0,1,14.09-.51,11.12,11.12,0,0,1,1.68-3.31,10.59,10.59,0,0,0-8.63-4.44" transform="translate(0 0)"/><path id="패스_7882" data-name="패스 7882" class="cls-41" d="M85.71,44.24A10.92,10.92,0,0,0,84,47.55a4.6,4.6,0,0,1,.19.52h0a1.56,1.56,0,0,0,3-.74c0-.09-.06-.18-.09-.27a10.92,10.92,0,0,0-1.45-2.82" transform="translate(0 0)"/><path id="패스_7883" data-name="패스 7883" class="cls-42" d="M53.09,39.93a11,11,0,0,0-11,11v.3c0-.1,0-.19,0-.29h0a1.61,1.61,0,0,1,3.22-.16,7.79,7.79,0,1,1,0,.46,11.09,11.09,0,0,1-1.61,5.45,11,11,0,0,0,15.14,3.66A11.13,11.13,0,0,0,61.54,58a8,8,0,0,0,6.92,4,1.55,1.55,0,0,0,1.18-.51,1.61,1.61,0,0,1-2.78-1.11V58.49A4.78,4.78,0,0,1,63.68,54h0a11,11,0,0,0-10.6-14.07" transform="translate(0 0)"/><path id="패스_7884" data-name="패스 7884" class="cls-43" d="M66.79,58.5v1.87a1.61,1.61,0,1,0,1.61-1.6h0a4.56,4.56,0,0,1-1.6-.27" transform="translate(0 0)"/><path id="패스_7885" data-name="패스 7885" class="cls-35" d="M45.52,50.79V51h0a.81.81,0,0,0,0-.16M26.68,41.54H23.46V51h0A11,11,0,0,0,43.92,56.7a10.93,10.93,0,0,1-1.62-5.45A7.81,7.81,0,0,1,26.68,51V41.54M25.07,35a1.61,1.61,0,0,0-1.61,1.61v1.68h3.22V36.63A1.61,1.61,0,0,0,25.07,35" transform="translate(0 0)"/><path id="패스_7886" data-name="패스 7886" class="cls-44" d="M43.72,49.34A1.61,1.61,0,0,0,42.11,51h0a2.71,2.71,0,0,1,0,.29,10.93,10.93,0,0,0,1.62,5.45,11,11,0,0,0,1.61-5.45c0-.1,0-.2,0-.3v-.16a1.61,1.61,0,0,0-1.6-1.45" transform="translate(0 0)"/><path id="패스_7887" data-name="패스 7887" class="cls-34" d="M15.77,41a15.27,15.27,0,0,0-3.32-1,14.47,14.47,0,0,1-3.38-.8,5.08,5.08,0,0,1-2.13-1.62,4.76,4.76,0,1,1,8.88-2.45,1.61,1.61,0,1,0,3.22,0h0a8,8,0,1,0-15,3.94s1.61,3,6.68,3.92h0c.43.08.89.16,1.38.22h0A7.82,7.82,0,1,1,3.22,51,1.61,1.61,0,0,0,0,51H0A11,11,0,1,0,15.77,41Z" transform="translate(0 0)"/><path id="패스_7888" data-name="패스 7888" class="cls-36" d="M23.46,38.11H22.09a1.61,1.61,0,0,0,0,3.22h1.37V38.11m12.53,0H26.68v3.22H36a1.61,1.61,0,1,0,0-3.22" transform="translate(0 0)"/><path id="패스_7889" data-name="패스 7889" class="cls-45" d="M26.68,38.11H23.46v3.22h3.22V38.11" transform="translate(0 0)"/></g></g></g></svg>